# xmcd
#
# Track frame offsets: 
#        150
#        14414
#        28958
#        42616
#        56620
#        71281
#        86758
#        101691
#        114287
#        128274
#        142566
#        155985
#        171353
#        186656
#        201546
#        215944
#        229963
#        242981
#        257226
#        272650
#
# Disc length: 3807 seconds
#
# Revision: 0
# Processed by: cddbd v1.5.2PL0 Copyright (c) Steve Scherf et al.
# Submitted via: ExactAudioCopyFreeDBPlugin 1.0
#
DISCID=360edd14
DTITLE=Clara Smith - Complete Recorded Works Vol. 4 (1926-1927)
DYEAR=1995
DGENRE=Blues
TTITLE0=Look Where the Sun Done Gone
TTITLE1=Rock, Church, Rock
TTITLE2=Jelly Bean Blues
TTITLE3=How'm I Doin'
TTITLE4=Whip It to Jelly
TTITLE5=Salty Dog
TTITLE6=My Brand-New Papa
TTITLE7=Ain't Nothin' Cookin' What You're Smellin'
TTITLE8=Separation Blues
TTITLE9=Percolatin' Blues
TTITLE10=Ease It
TTITLE11=Livin' Humble
TTITLE12=Get On Board
TTITLE13=Cheatin' Daddy
TTITLE14=You Don't Know Who's Shakin' Your Tree
TTITLE15=Race Track Blues
TTITLE16=Troublesome Blues
TTITLE17=You Can't Get It Now
TTITLE18=That's Why the Undertakers Are Busy Today
TTITLE19=Black Woman's Blues
EXTD=
EXTT0=
EXTT1=
EXTT2=
EXTT3=
EXTT4=
EXTT5=
EXTT6=
EXTT7=
EXTT8=
EXTT9=
EXTT10=
EXTT11=
EXTT12=
EXTT13=
EXTT14=
EXTT15=
EXTT16=
EXTT17=
EXTT18=
EXTT19=
PLAYORDER=
